<svg width="235" height="94" viewBox="0 0 235 94" fill="none" xmlns="http://www.w3.org/2000/svg">
<path d="M52.9531 59.0312V70H4.57812V59.0312H52.9531ZM52.25 9.57812L10.8125 70H0.921875V61.9375L42.6875 1.75H52.25V9.57812ZM47.4219 1.75V12.7656H0.96875V1.75H47.4219ZM108.203 59.0312V70H71.875V59.0312H108.203ZM76.4688 1.75V70H62.4062V1.75H76.4688ZM103.469 29.5469V40.2344H71.875V29.5469H103.469ZM108.156 1.75V12.7656H71.875V1.75H108.156ZM116.906 1.75H142.359C147.578 1.75 152.062 2.53125 155.812 4.09375C159.594 5.65625 162.5 7.96875 164.531 11.0312C166.562 14.0937 167.578 17.8594 167.578 22.3281C167.578 25.9844 166.953 29.125 165.703 31.75C164.484 34.3438 162.75 36.5156 160.5 38.2656C158.281 39.9844 155.672 41.3594 152.672 42.3906L148.219 44.7344H126.094L126 33.7656H142.453C144.922 33.7656 146.969 33.3281 148.594 32.4531C150.219 31.5781 151.438 30.3594 152.25 28.7969C153.094 27.2344 153.516 25.4219 153.516 23.3594C153.516 20.0781 152.594 17.5 150.75 15.625C148.938 13.7187 146.141 12.7656 142.359 12.7656H130.969V70H116.906V1.75ZM155.062 70L139.5 39.5781L154.359 39.4844L170.109 69.3438V70H155.062ZM234.969 34.2812V37.5156C234.969 44.4531 233.734 50.4219 231.266 55.4219C228.828 60.3906 225.422 64.2188 221.047 66.9062C216.703 69.5938 211.672 70.9375 205.953 70.9375C200.266 70.9375 195.234 69.5938 190.859 66.9062C186.484 64.2188 183.047 60.3906 180.547 55.4219C178.078 50.4219 176.844 44.4531 176.844 37.5156V34.2812C176.844 27.3438 178.078 21.375 180.547 16.375C183.016 11.375 186.422 7.53125 190.766 4.84375C195.141 2.15625 200.172 0.8125 205.859 0.8125C211.578 0.8125 216.625 2.15625 221 4.84375C225.406 7.53125 228.828 11.375 231.266 16.375C233.734 21.375 234.969 27.3438 234.969 34.2812ZM220.766 37.5156V34.1875C220.766 29.375 220.172 25.3281 218.984 22.0469C217.828 18.7656 216.141 16.2812 213.922 14.5938C211.734 12.875 209.047 12.0156 205.859 12.0156C202.703 12.0156 200.016 12.875 197.797 14.5938C195.609 16.2812 193.938 18.7656 192.781 22.0469C191.625 25.3281 191.047 29.375 191.047 34.1875V37.5156C191.047 42.2969 191.625 46.3438 192.781 49.6562C193.969 52.9688 195.672 55.4844 197.891 57.2031C200.109 58.9219 202.797 59.7812 205.953 59.7812C209.141 59.7812 211.828 58.9219 214.016 57.2031C216.203 55.4844 217.875 52.9688 219.031 49.6562C220.188 46.3438 220.766 42.2969 220.766 37.5156Z" fill="white"/>
<path d="M105.531 37.4219L86.9688 94H72.0156L97.375 25.75H106.891L105.531 37.4219ZM120.953 94L102.344 37.4219L100.844 25.75H110.453L135.953 94H120.953ZM120.109 68.5938V79.6094H84.0625V68.5938H120.109ZM157.734 25.75V94H143.719V25.75H157.734Z" fill="#BDE11C" fill-opacity="0.83"/>
</svg>
